PathFileType	4	(X/Y/Z)	/Users/visionmauri/Downloads/Videos/OAW04-top_Sports2D/OAW04-top_Sports2D_px_person00.trc
DataRate	CameraRate	NumFrames	NumMarkers	Units	OrigDataRate	OrigDataStartFrame	OrigNumFrames
30.0	30.0	9	22	m	30.0	1183	2367
Frame#	Time	Hip			RHip			RKnee			RAnkle			RBigToe			RSmallToe			RHeel			LHip			LKnee			LAnkle			LBigToe			LSmallToe			LHeel			Neck			Head			Nose			RShoulder			RElbow			RWrist			LShoulder			LElbow			LWrist			
		X1	Y1	Z1	X2	Y2	Z2	X3	Y3	Z3	X4	Y4	Z4	X5	Y5	Z5	X6	Y6	Z6	X7	Y7	Z7	X8	Y8	Z8	X9	Y9	Z9	X10	Y10	Z10	X11	Y11	Z11	X12	Y12	Z12	X13	Y13	Z13	X14	Y14	Z14	X15	Y15	Z15	X16	Y16	Z16	X17	Y17	Z17	X18	Y18	Z18	X19	Y19	Z19	X20	Y20	Z20	X21	Y21	Z21	X22	Y22	Z22
1183	39.45	635.8797801628252	1091.5854095994246	0.0	602.5687531963538	1092.7612509970788	0.0	605.3310984297119	1203.0460859500972	0.0	607.1488117821855	1255.4276302959183	0.0	604.0499141200049	1312.4589386356693	0.0	586.4929646133248	1299.9538362151707	0.0	611.3882532316493	1252.7330059370283	0.0	667.5495771081945	1091.3610293056288	0.0	659.2157984181953	1218.9648331329286	0.0	644.2225829128774	1355.2022597321225	0.0	654.9244370045884	1407.459278580759	0.0	668.9070014307656	1399.647783435856	0.0	633.7196236805753	1367.515933110695	0.0	634.1673708281301	927.6605817183056	0.0	627.8360441821403	847.7733930809286	0.0	629.2152004917978	923.436327890123	0.0	572.4804351971659	934.528526968923	0.0	549.9786234610971	1021.2069047582078	0.0	548.1992378416114	1099.8957280202153	0.0	698.9244226842369	932.0749265639369	0.0	730.5723086432101	1006.3187982879325	0.0	739.2639747604994	1075.495105243802	0.0
1184	39.483347421808965	637.7694835344311	1095.1501161283984	0.0	604.317103307825	1096.221348084391	0.0	605.7297917309454	1210.0646155511465	0.0	606.1257094284155	1255.7285610422796	0.0	602.5938668694477	1315.2296305461925	0.0	585.2011271822215	1301.8026817869911	0.0	609.5757242649175	1251.3413557967606	0.0	669.0719610643628	1095.1860661960293	0.0	660.1564868359161	1222.9267026601092	0.0	643.7690782171194	1354.8692198906015	0.0	654.3567428868236	1407.2824196245529	0.0	668.6468672433897	1399.154453578121	0.0	633.4366800369543	1367.12113688858	0.0	635.3782018853406	929.4711772813694	0.0	627.7983625543517	849.1042289313859	0.0	629.559950249064	926.0143133888581	0.0	572.2287511986236	936.4783455509074	0.0	551.0666497103578	1025.5740479384563	0.0	548.7945411441527	1106.1920214740142	0.0	700.676077572944	934.2600471768361	0.0	732.3224450401772	1013.1250952471773	0.0	739.5974017952869	1085.885134371609	0.0
1185	39.51669484361793	639.6165721583992	1098.6251045211288	0.0	606.5950152539081	1100.0161091606765	0.0	606.9039136194664	1214.0669428196463	0.0	605.5879786687326	1259.207605001745	0.0	599.8752245791586	1318.4440316914104	0.0	583.456759191754	1304.9999093290357	0.0	608.730651159751	1257.0763323272206	0.0	670.3997962772501	1099.2735609889203	0.0	661.4771828362858	1225.4792344633768	0.0	643.9859421890203	1354.6886578581798	0.0	654.516946197368	1407.3105428322915	0.0	668.4416562078328	1399.0765189544672	0.0	633.5402485981252	1367.2104698697601	0.0	636.6263007600896	930.7432833132327	0.0	628.111457686593	849.4739209025129	0.0	629.9504504058177	927.5824972146568	0.0	571.9195605682429	938.5062223822589	0.0	552.1692941723809	1030.2555754495206	0.0	549.156920989307	1114.4844321904134	0.0	702.1650808357907	936.6906182397295	0.0	733.5522624881808	1019.9692148396456	0.0	739.6126172570711	1097.6816655403734	0.0
1186	39.55004226542689	640.8817692661448	1101.7476138050818	0.0	608.6607517372091	1103.604367286116	0.0	608.0101380914302	1217.0007043620728	0.0	605.1273150620864	1270.0791928059332	0.0	596.871615336848	1326.6352737807354	0.0	581.7000487227433	1313.5539689503992	0.0	608.1257024948743	1272.5921310812093	0.0	671.8086389747125	1103.1721798836961	0.0	663.0686518734329	1227.7692264338668	0.0	644.2634981760792	1355.0977950691934	0.0	654.8297781563332	1408.2668430341585	0.0	668.2153776557607	1399.8008477179299	0.0	633.8904470267764	1367.632355637313	0.0	637.5221003773632	931.4122766524594	0.0	628.373994781457	848.1654624302522	0.0	630.1232239439223	927.3195231528362	0.0	571.8058145171507	940.2631455388603	0.0	552.9825990158474	1034.9016664835983	0.0	549.6482163461698	1122.5170787805966	0.0	703.6074591767272	939.090825762083	0.0	733.9925118276269	1025.8495672611375	0.0	739.2064449593449	1107.9466666413564	0.0
1187	39.58338968723585	641.5752496171701	1104.8440471720926	0.0	609.7805785196697	1106.8311254107066	0.0	608.5170930881973	1222.0986984338072	0.0	603.724367742247	1290.6036628388135	0.0	594.535327456025	1344.835287743351	0.0	580.0449130648132	1331.802263407157	0.0	606.2426375736553	1298.098762743038	0.0	673.3294573730454	1106.7000101907315	0.0	664.5570529215546	1230.8887861548058	0.0	644.5186291549182	1355.7191105483066	0.0	654.4430641550506	1409.86516684598	0.0	667.9766781073754	1400.763523230131	0.0	634.3346792496941	1368.0453552216293	0.0	637.9376232324397	932.0845669633086	0.0	628.379071757915	846.4320183069266	0.0	630.0485774806876	926.4242452458002	0.0	571.9681364465525	941.9601838248477	0.0	553.3435985491138	1039.1292381286678	0.0	550.2315525895352	1128.0696205670354	0.0	705.1672495536286	941.4955199401115	0.0	734.0527114407784	1031.281573015357	0.0	738.0419432431207	1116.6030098779556	0.0
1188	39.616737109044806	641.9975657536712	1108.4769506219932	0.0	609.9135992211685	1110.6298685722618	0.0	608.7495492417594	1230.465919774307	0.0	601.2466572187026	1317.5275624219316	0.0	592.8297833008724	1371.2204585609409	0.0	578.3739963463306	1358.5866353956797	0.0	603.4835385898624	1329.0860137226434	0.0	674.6532512754437	1110.7527412705963	0.0	665.7281430074614	1235.608153934545	0.0	644.7509463709947	1355.9597324942401	0.0	653.6023500419142	1410.937669964222	0.0	667.9526631532351	1401.440177828961	0.0	634.7634961978023	1368.4539386463157	0.0	637.8583961617119	933.3331199472217	0.0	628.0929426850506	847.6434189154279	0.0	629.8232417577929	927.7716624594657	0.0	572.1749980539524	944.052123441624	0.0	553.1026675826305	1042.6541102723713	0.0	550.2433644412918	1131.1456516557782	0.0	706.4390279300308	943.9976383739117	0.0	734.1925444581874	1037.0779249621028	0.0	736.1006488833367	1125.198685591529	0.0
1189	39.65008453085377	642.2070516034845	1113.3818869473507	0.0	609.6923684012515	1116.2266947706992	0.0	608.9695515009604	1241.2338069293476	0.0	598.8540611424513	1344.8399260873555	0.0	591.5360761553136	1399.5183793322062	0.0	577.0183891550963	1388.2586445290995	0.0	601.3885934771301	1358.6844826150755	0.0	675.5677249330554	1116.6744243677308	0.0	666.5375311699613	1242.20776802638	0.0	644.6531858546747	1356.0987237582872	0.0	653.4230346101841	1410.7129652907017	0.0	668.1848157741273	1401.5796231991108	0.0	635.0464302367328	1368.9799678182794	0.0	637.4294173755756	935.9061997080717	0.0	627.1368486017551	853.1795435558586	0.0	629.2775584689142	932.5715717993244	0.0	572.1942069659513	946.7808291882038	0.0	552.2417965615672	1045.7542886846697	0.0	549.3184780874705	1133.66483327496	0.0	706.688705733419	946.7531498836958	0.0	734.1520726245128	1043.2722579879612	0.0	733.8172204767166	1133.478924919114	0.0
1190	39.68343195266273	642.2258973565191	1120.1401920839437	0.0	609.5756034557743	1123.4218968653795	0.0	608.7463375339313	1252.5100637562755	0.0	597.5761343174196	1369.8621161788067	0.0	590.7302620646725	1425.9644717310043	0.0	576.4494592110244	1416.6918072266917	0.0	600.0807806701825	1384.49952400322	0.0	676.050755688717	1124.1998083921007	0.0	666.924871057991	1250.0764342420123	0.0	644.1270758909424	1356.7667581431838	0.0	653.9605997704143	1410.4141322021749	0.0	668.3476656047768	1401.485235711206	0.0	635.1293578590944	1369.243861374035	0.0	637.0969411772118	940.4325829362784	0.0	625.1437671262262	858.6519221561023	0.0	628.227996936498	937.5793637908503	0.0	571.9497754575222	950.2555277566117	0.0	551.1698234326409	1048.9902941749572	0.0	548.0309039503876	1136.8241649442614	0.0	705.9677552319255	950.2738871847652	0.0	733.4554523705567	1049.7108581457694	0.0	731.2225536785887	1140.1340869126223	0.0
1191	39.71677937447169	641.8765906683738	1127.976791869385	0.0	609.0623378129679	1130.5916858440478	0.0	607.7570266785347	1262.5199274823244	0.0	597.3975279012076	1393.0349477940888	0.0	590.608935440043	1449.457534267476	0.0	576.6192069825993	1441.9157867456097	0.0	599.0276520821741	1408.4604452005074	0.0	675.8191587871293	1131.5430697751735	0.0	666.792718550312	1257.8650924424842	0.0	643.6001769578568	1357.907823673488	0.0	654.2112643270519	1411.7598294466052	0.0	668.2676027029848	1402.160353207831	0.0	635.0459970701288	1369.0550468861816	0.0	637.0168666012856	945.8271793308088	0.0	622.475334059843	859.3530335030198	0.0	626.849677332933	939.7732379905422	0.0	571.575349061441	954.3620062430136	0.0	550.4034233693003	1052.483718722008	0.0	546.8299603864953	1140.1185380409636	0.0	705.2183212897083	954.9112231933516	0.0	732.0525466235157	1056.347972837582	0.0	727.6009218495142	1145.2437374737692	0.0
